<svg width="62" height="62" viewBox="0 0 62 62" fill="none" xmlns="http://www.w3.org/2000/svg">
<path d="M31 4C34.5457 4 38.0567 4.69838 41.3325 6.05525C44.6082 7.41213 47.5847 9.40094 50.0919 11.9081C52.5991 14.4153 54.5879 17.3918 55.9447 20.6676C57.3016 23.9433 58 27.4543 58 31C58 34.5457 57.3016 38.0567 55.9447 41.3325C54.5879 44.6082 52.5991 47.5847 50.0919 50.0919C47.5847 52.5991 44.6082 54.5879 41.3324 55.9448C38.0567 57.3016 34.5457 58 31 58C27.4543 58 23.9433 57.3016 20.6675 55.9447C17.3917 54.5879 14.4153 52.5991 11.9081 50.0919C9.40093 47.5847 7.41212 44.6082 6.05525 41.3324C4.69837 38.0566 4 34.5457 4 31C4 27.4543 4.69838 23.9433 6.05526 20.6675C7.41214 17.3917 9.40094 14.4153 11.9081 11.9081C14.4153 9.40093 17.3918 7.41212 20.6676 6.05525C23.9434 4.69837 27.4543 4 31 4L31 4Z" stroke="#475467" stroke-width="8" stroke-linecap="round" stroke-linejoin="round"/>
</svg>
